<svg version="1.1" viewBox="0.0 0.0 19.1994750656168 19.1994750656168" fill="none" stroke="none" stroke-linecap="square" stroke-miterlimit="10" xmlns:xlink="http://www.w3.org/1999/xlink" xmlns="http://www.w3.org/2000/svg"><clipPath id="ga2b7575d28_0_0.0"><path d="m0 0l19.199474 0l0 19.199474l-19.199474 0l0 -19.199474z" clip-rule="nonzero"/></clipPath><g clip-path="url(#ga2b7575d28_0_0.0)"><path fill="#ffffff" d="m0 0l19.199474 0l0 19.199474l-19.199474 0z" fill-rule="evenodd"/><g mask="url(#mask-ga2b7575d28_0_0.1)"><use xlink:href="#ga2b7575d28_0_0.1" transform="matrix(1.0 0.0 0.0 -1.0 0.0 42.1496062992126)"/></g><defs><mask id="mask-ga2b7575d28_0_0.1" maskUnits="userSpaceOnUse" x="-5.875958005249346" y="15.074803149606298" width="30.952755905511808" height="30.952755905511815"><linearGradient gradientUnits="userSpaceOnUse" id="gradient-ga2b7575d28_0_0.1" x1="0.12404199499901782" y1="23.074734540818" x2="0.12402141228720094" y2="28.7605821209688"><stop offset="0%" stop-color="#ffffff" stop-opacity="0.0"/><stop offset="100%" stop-color="#ffffff" stop-opacity="0.0"/></linearGradient><rect fill="url(#gradient-ga2b7575d28_0_0.1)" x="-5.875958005249346" y="15.074803149606298" width="30.952755905511808" height="30.952755905511815"/></mask></defs><g id="ga2b7575d28_0_0.1"><g filter="url(#shadowFilter-ga2b7575d28_0_0.2)"><use xlink:href="#ga2b7575d28_0_0.2" transform="matrix(1.0 0.0 0.0 1.0 0.0 2.0)"/></g><defs><filter id="shadowFilter-ga2b7575d28_0_0.2" filterUnits="userSpaceOnUse"><feGaussianBlur in="SourceAlpha" stdDeviation="2.0" result="blur"/><feComponentTransfer in="blur" color-interpolation-filters="sRGB"><feFuncR type="linear" slope="0" intercept="0.0"/><feFuncG type="linear" slope="0" intercept="0.0"/><feFuncB type="linear" slope="0" intercept="0.0"/><feFuncA type="linear" slope="0.0" intercept="0"/></feComponentTransfer></filter></defs><g id="ga2b7575d28_0_0.2"><path fill="#eeeeee" d="m0.624042 9.598425l0 0c0 -4.957516 4.0188613 -8.9763775 8.976378 -8.9763775l0 0c2.380683 0 4.6638603 0.94572276 6.3472576 2.6291203c1.6833973 1.6833975 2.6291199 3.9665744 2.6291199 6.3472576l0 0c0 4.9575167 -4.018861 8.9763775 -8.9763775 8.9763775l0 0c-4.9575167 0 -8.976378 -4.018861 -8.976378 -8.9763775zm4.4881887 0l0 0c0 2.4787588 2.009431 4.4881897 4.488189 4.4881897c2.4787579 0 4.4881887 -2.009431 4.4881887 -4.4881897c0 -2.4787579 -2.009431 -4.4881887 -4.4881887 -4.4881887l0 0c-2.4787583 0 -4.488189 2.009431 -4.488189 4.4881887z" fill-rule="evenodd"/><path stroke="#00ff00" stroke-width="1.0" stroke-linejoin="round" stroke-linecap="butt" d="m0.624042 9.598425l0 0c0 -4.957516 4.0188613 -8.9763775 8.976378 -8.9763775l0 0c2.380683 0 4.6638603 0.94572276 6.3472576 2.6291203c1.6833973 1.6833975 2.6291199 3.9665744 2.6291199 6.3472576l0 0c0 4.9575167 -4.018861 8.9763775 -8.9763775 8.9763775l0 0c-4.9575167 0 -8.976378 -4.018861 -8.976378 -8.9763775zm4.4881887 0l0 0c0 2.4787588 2.009431 4.4881897 4.488189 4.4881897c2.4787579 0 4.4881887 -2.009431 4.4881887 -4.4881897c0 -2.4787579 -2.009431 -4.4881887 -4.4881887 -4.4881887l0 0c-2.4787583 0 -4.488189 2.009431 -4.488189 4.4881887z" fill-rule="evenodd"/><path fill="#000000" d="m7.7375374 11.998425l0 -4.765625l0.640625 0l0 4.203125l2.34375 0l0 0.5625l-2.984375 0z" fill-rule="nonzero"/></g></g><path fill="#000000" fill-opacity="0.0" d="m9.60042 0.62204725l0 4.1889763" fill-rule="evenodd"/><path stroke="#00ff00" stroke-width="1.0" stroke-linejoin="round" stroke-linecap="butt" d="m9.60042 0.62204725l0 4.1889763" fill-rule="evenodd"/><path fill="#000000" fill-opacity="0.0" d="m9.60042 14.385827l0 4.1889753" fill-rule="evenodd"/><path stroke="#00ff00" stroke-width="1.0" stroke-linejoin="round" stroke-linecap="butt" d="m9.60042 14.385827l0 4.1889753" fill-rule="evenodd"/><path fill="#000000" fill-opacity="0.0" d="m18.416693 9.598425l-4.1889763 0" fill-rule="evenodd"/><path stroke="#00ff00" stroke-width="1.0" stroke-linejoin="round" stroke-linecap="butt" d="m18.416693 9.598425l-4.1889763 0" fill-rule="evenodd"/><path fill="#000000" fill-opacity="0.0" d="m4.8130183 9.598425l-4.1889763 0" fill-rule="evenodd"/><path stroke="#00ff00" stroke-width="1.0" stroke-linejoin="round" stroke-linecap="butt" d="m4.8130183 9.598425l-4.1889763 0" fill-rule="evenodd"/><path fill="#000000" fill-opacity="0.0" d="m15.862284 3.4225676l-2.9606304 2.9606302" fill-rule="evenodd"/><path stroke="#00ff00" stroke-width="1.0" stroke-linejoin="round" stroke-linecap="butt" d="m15.862284 3.4225676l-2.9606304 2.9606302" fill-rule="evenodd"/><path fill="#000000" fill-opacity="0.0" d="m6.431837 12.952751l-2.9606297 2.9606304" fill-rule="evenodd"/><path stroke="#00ff00" stroke-width="1.0" stroke-linejoin="round" stroke-linecap="butt" d="m6.431837 12.952751l-2.9606297 2.9606304" fill-rule="evenodd"/><path fill="#000000" fill-opacity="0.0" d="m16.189098 15.474568l-2.9606295 -2.9606304" fill-rule="evenodd"/><path stroke="#00ff00" stroke-width="1.0" stroke-linejoin="round" stroke-linecap="butt" d="m16.189098 15.474568l-2.9606295 -2.9606304" fill-rule="evenodd"/><path fill="#000000" fill-opacity="0.0" d="m6.559178 6.243597l-2.9606302 -2.9606302" fill-rule="evenodd"/><path stroke="#00ff00" stroke-width="1.0" stroke-linejoin="round" stroke-linecap="butt" d="m6.559178 6.243597l-2.9606302 -2.9606302" fill-rule="evenodd"/></g></svg>