<svg version="1.1" viewBox="0.0 0.0 19.1994750656168 19.1994750656168" fill="none" stroke="none" stroke-linecap="square" stroke-miterlimit="10" xmlns:xlink="http://www.w3.org/1999/xlink" xmlns="http://www.w3.org/2000/svg"><clipPath id="p.0"><path d="m0 0l19.199474 0l0 19.199474l-19.199474 0l0 -19.199474z" clip-rule="nonzero"/></clipPath><g clip-path="url(#p.0)"><path fill="#ffffff" d="m0 0l19.199474 0l0 19.199474l-19.199474 0z" fill-rule="evenodd"/><path fill="#eeeeee" d="m0.6706037 4.24147l0 0c0 -1.287215 1.0434937 -2.3307087 2.3307085 -2.3307087l0.64566946 0l0 0l4.4645667 0l8.086614 0c0.6181431 0 1.210968 0.24555612 1.6480598 0.6826489c0.43709373 0.43709254 0.6826496 1.0299175 0.6826496 1.6480598l0 5.8267713l0 0l0 3.4960632l0 0c0 1.2872152 -1.0434933 2.3307085 -2.3307095 2.3307085l-8.086614 0l-2.232224 1.7480326l-2.2323427 -1.7480326l-0.64566946 0l0 0c-1.2872148 0 -2.3307085 -1.0434933 -2.3307085 -2.3307085l0 0l0 -3.4960632l0 0z" fill-rule="evenodd"/><path stroke="#ff9900" stroke-width="1.0" stroke-linejoin="round" stroke-linecap="butt" d="m0.6706037 4.24147l0 0c0 -1.287215 1.0434937 -2.3307087 2.3307085 -2.3307087l0.64566946 0l0 0l4.4645667 0l8.086614 0c0.6181431 0 1.210968 0.24555612 1.6480598 0.6826489c0.43709373 0.43709254 0.6826496 1.0299175 0.6826496 1.6480598l0 5.8267713l0 0l0 3.4960632l0 0c0 1.2872152 -1.0434933 2.3307085 -2.3307095 2.3307085l-8.086614 0l-2.232224 1.7480326l-2.2323427 -1.7480326l-0.64566946 0l0 0c-1.2872148 0 -2.3307085 -1.0434933 -2.3307085 -2.3307085l0 0l0 -3.4960632l0 0z" fill-rule="evenodd"/><path fill="#000000" d="m4.8667793 13.422887l0 -8.59375l1.15625 0l4.515625 6.7500005l0 -6.7500005l1.09375 0l0 8.59375l-1.171875 0l-4.515625 -6.7500005l0 6.7500005l-1.078125 0z" fill-rule="nonzero"/></g></svg>

